<?xml version="1.0" encoding="UTF-8" standalone="no"?>

<svg
   baseprofile="tiny"
   fill="#6f9c76"
   height="947"
   stroke="#ffffff"
   stroke-linecap="round"
   stroke-linejoin="round"
   stroke-width="0.5"
   version="1.2"
   viewbox="0 0 1000 947"
   width="1000"
   id="svg236"
   sodipodi:docname="pl.svg"
   inkscape:version="1.2.1 (9c6d41e410, 2022-07-14)"
   xmlns:inkscape="http://www.inkscape.org/namespaces/inkscape"
   xmlns:sodipodi="http://sodipodi.sourceforge.net/DTD/sodipodi-0.dtd"
   xmlns="http://www.w3.org/2000/svg"
   xmlns:svg="http://www.w3.org/2000/svg">
  <defs
     id="defs240" />
  <sodipodi:namedview
     id="namedview238"
     pagecolor="#ffffff"
     bordercolor="#000000"
     borderopacity="0.25"
     inkscape:showpageshadow="2"
     inkscape:pageopacity="0.0"
     inkscape:pagecheckerboard="0"
     inkscape:deskcolor="#d1d1d1"
     showgrid="false"
     inkscape:zoom="0.55596621"
     inkscape:cx="947.89933"
     inkscape:cy="250.01519"
     inkscape:window-width="2560"
     inkscape:window-height="1417"
     inkscape:window-x="-8"
     inkscape:window-y="-8"
     inkscape:window-maximized="1"
     inkscape:current-layer="svg236" />
  <path
     d="m 528.6,820 -0.5,-0.2 -0.5,0.2 -0.4,0.7 -7.8,8.7 -0.7,0.6 -1.3,0.5 -0.9,0.2 h -2.8 l -1.8,0.3 -1.5,0.8 -1.3,1.2 -1.2,2 -1.5,4.5 0.2,0.2 0.3,0.4 0.2,0.7 -0.3,0.9 -0.4,0.3 -1.1,0.1 h -0.2 l -0.7,2.7 -0.2,1.8 -0.7,1.1 -2.8,1.1 -2.2,0.5 -1,-0.1 -0.8,-0.5 -1.8,-1.3 -0.9,-0.3 -2,0.5 -3.5,2.1 -2.3,0.1 -1.7,-0.3 -0.5,-1.6 0.3,-4.6 -0.2,-2 -0.4,-1.9 -0.1,-2 0.8,-2.4 -2.7,-1.6 -9,-0.8 0.4,-2.1 v -0.2 l -0.2,-2.9 -1.3,-6 -0.4,-1.2 -1.1,-2.5 -0.4,-1.3 -0.6,-4.9 -0.4,-1.1 -1.4,-1 -1.4,0.3 -1.4,0.6 -1.3,0.1 -1.2,-0.7 -1.8,-2.1 -1.1,-1 -1.3,-0.4 h -0.9 L 455.6,806 H 455 l -1.2,-0.9 -0.6,-1 -0.9,-4.1 -2.2,-4.4 -1.5,-4.3 -0.1,-3.7 0.5,-0.5 V 787 l 1.2,-1.4 0.5,-0.5 0.1,-0.2 v -0.4 l -2.2,-1.1 -0.4,-1.8 0.3,-2.1 -0.6,-2.6 -1.4,-0.8 -0.9,0.6 -1.4,0.9 -1.2,0.8 h -2.1 l -6.8,-3.7 -3.5,-1.3 -2.1,0.3 v 0.2 0.3 h -0.5 -0.1 -0.4 v 0.1 l -0.2,0.3 -0.3,0.2 -0.3,0.3 -0.5,0.4 -1.2,1.1 -1.3,0.2 -1.8,-1.5 -0.5,-0.9 -0.7,-2.2 -0.3,-0.8 -1.1,-0.8 -2.1,-0.4 -1.1,-0.5 -2.9,-2.5 -1.4,-0.7 -5.7,-1.1 -1.2,-1.4 0.6,-2.6 -3.9,-2.5 -0.8,-0.5 -0.6,-0.5 -1.3,-0.3 0.1,-1.7 v -0.4 -0.3 l 5.4,-10.6 11.4,-2.4 5.5,-4.1 8.8,-4.1 0.9,-4.1 0.1,-7.3 -1.5,-18.2 0.8,-3 2,-0.3 2,-1 0.1,-2.5 -1,-2.6 1.2,-3.2 2.7,-0.6 13.2,0.1 -1.1,-5.1 -2.9,-3.1 -2.9,-2.3 -2.4,-3.3 -1.8,-5.4 2.2,-5.9 1.6,-9 2.4,-5.1 7.1,-4.6 0.7,-5.1 -1.2,-2.6 -0.6,-3.3 0.7,-2.2 1.1,-1.4 3.1,-11 4.6,-2.3 12.8,-0.4 3,-1.4 2.8,-2 3.2,0.6 2.8,2.9 11.9,6.4 5.9,1.2 h 7.2 l 3.1,-2.7 6.1,1.1 5.5,5 8.5,13.6 3,0.9 9.1,-0.5 9.9,5 7.7,1.5 1.2,0.7 0.3,1.6 v 1.7 l -0.4,1.2 -6.2,1 -3.4,6.5 2.5,2.9 6.8,2 3.1,2.4 2.6,5.6 4.3,5.3 -3.7,0.6 -6.2,5.2 -1.8,4 3.1,1.7 6.2,0.9 2.6,1 0.6,3.1 0.2,2.5 -11.5,7.2 -2.8,0.5 -5.1,-0.4 -5,0.8 -8,6.2 -2.3,0.5 -2.4,0.1 -5,-2.9 -2.4,3.6 -2.6,5.1 -3.9,5.6 -6.1,-0.9 -2.8,2.3 4.8,4.8 4.2,5.9 -21.5,24.2 -2,2.9 -2,4.2 -1,4.7 1.8,2.4 2.4,0.2 2,2.5 0.2,4.7 2.7,4.9 4.6,1.8 1.8,3.3 1.4,4.4 2.9,2.7 3.4,1.6 6.2,1.1 -0.3,3.6 -1.6,3.2 -0.7,2.9 1.1,2.5 2.1,1.5 z"
     id="PLSL"
     name="Silesian"
     style="fill:#faedcd;fill-opacity:1;stroke:#000000" />
  <path
     d="m 528.6,820 -0.5,-1.6 -2.1,-1.5 -1.1,-2.5 0.7,-2.9 1.6,-3.2 0.3,-3.6 -6.2,-1.1 -3.4,-1.6 -2.9,-2.7 -1.4,-4.4 -1.8,-3.3 -4.6,-1.8 -2.7,-4.9 -0.2,-4.7 -2,-2.5 -2.4,-0.2 -1.8,-2.4 1,-4.7 2,-4.2 2,-2.9 21.5,-24.2 -4.2,-5.9 -4.8,-4.8 2.8,-2.3 6.1,0.9 3.9,-5.6 2.6,-5.1 2.4,-3.6 5,2.9 2.4,-0.1 2.3,-0.5 8,-6.2 5,-0.8 5.1,0.4 2.8,-0.5 11.5,-7.2 -0.2,-2.5 -0.6,-3.1 h 8.5 l 3.6,1.9 3,3.2 7.7,2.4 6.9,4.7 4.2,8.2 1.5,6.6 1.6,3.3 4.1,5.8 1.7,3.6 6.7,4 11.9,0.4 2.7,-2.9 0.4,-1.5 1.1,-1.8 2.9,-1.4 1.3,-1.3 0.3,-0.7 0.1,-1.5 0.3,-0.7 0.4,-0.3 h 0.8 l 0.3,-0.2 1.9,-1.9 0.6,-2.5 0.5,-0.8 3.5,3.3 1.5,-0.7 1.2,-1.3 1.2,-0.8 1.4,0.9 1.3,-0.8 2.5,-0.2 0.8,-0.5 0.9,-1.2 0.8,-0.7 0.9,-0.3 6.7,-0.2 1.4,-0.4 1,-0.9 0.9,-0.9 0.8,-0.8 3.8,-1.8 0.9,-0.2 1.3,0.6 0.8,1 0.9,0.8 1.6,-0.4 V 716 l 1.6,-2.2 0.6,-0.5 h 0.5 l 0.3,-0.3 0.2,-1.2 0.4,-0.8 1.1,-0.5 1.1,-1 0.5,-2 0.8,0.7 0.6,0.1 1,-0.8 0.1,-0.4 -0.1,-0.7 v -0.6 l 0.3,-0.3 1.3,0.1 -1,11.9 -2.7,6.8 -3.4,5.8 -0.6,8 2.5,21.3 -0.8,6.3 -0.1,5.4 0.9,1.7 0.7,1.9 1.9,2.3 2.6,0.2 3.4,1.8 1.2,4.1 -9,6.9 -1.6,3.5 2.7,2.5 9.8,4.2 5.4,5.9 3.2,9.8 0.3,4.9 -0.5,4.9 1.6,10.2 3.3,9.3 0.1,0.3 v 0.1 l -1.6,0.7 -1.4,-0.4 -3.3,0.7 h -1.5 l -8.9,-2.5 -5.1,-2.7 -1.2,-0.3 -1.6,1.1 -2.9,4.2 -1.5,1.5 -2,0.3 -1.4,-0.9 -1.3,-1.5 -1.6,-1.1 -1.4,-0.1 -3.7,0.7 -1.4,0.7 -1.8,2 1.1,1.3 2.1,1.3 1.1,2.1 -0.8,1.3 -1.6,0.3 h -2 l -1.4,0.3 -1.8,1.8 -3,4.4 -2,1.7 -2.1,0.8 -1.7,-0.3 -1.4,-1.1 -1.5,-1.6 -1.7,-1.2 -1.4,-0.2 h -1.6 l -2,-0.3 -1.5,-1 -8,-9.7 -1.4,-0.2 -3.5,0.5 -1.9,-0.3 -0.9,0.1 -0.9,0.5 -1.4,1.8 -1.1,1 -2.1,0.8 -2,-0.5 -7.7,-4 -1.4,0.4 v 2.4 l -4.7,0.1 -3.7,-1.4 -1.1,0.1 -0.9,0.7 -0.3,0.8 -0.2,1.3 -0.5,2 -0.6,1.9 -0.5,0.6 -7,0.7 -1.4,0.7 -1.9,2.4 -0.9,0.8 -2,-0.2 -0.3,-0.2 -0.5,0.7 -1.7,3.9 -0.5,1.6 -0.6,1.6 -1.2,1.3 -0.5,4.9 -0.9,3.5 -1.8,1.3 -3,-1.4 -4.7,-4.5 -2.5,-1.3 -2.9,0.4 -1.7,1.2 -1.7,1.8 -1.3,1.3 -2,0.8 -4.2,-0.3 -2.3,-0.9 -1.2,-1.6 0.4,-1.8 3.4,-5.6 0.4,-0.4 0.6,-0.1 0.5,-0.3 0.3,-0.8 -0.2,-0.6 v -0.1 l -0.7,-0.7 h -0.1 l -0.1,-0.4 -1.3,-0.9 -0.3,-0.5 0.1,-0.5 0.7,-1.1 0.1,-0.6 -0.5,-6.7 -0.5,-2.3 -0.8,-2.6 v -0.1 l -0.9,-0.6 -3,1.2 -1.8,0.2 -2,-0.2 -5.2,-1.8 0.2,-1.6 -0.1,-2.2 0.2,-0.8 0.4,-0.9 h -3.6 l -1.9,-0.5 -1.6,-1.2 -0.5,-1 -1.4,-4.5 -1.7,-7 -1.1,-2.8 -2.1,-1.4 -0.7,-0.8 -1.5,-2.7 z"
     id="PLMA"
     name="Lesser Poland"
     style="fill:#faedcd;fill-opacity:1;stroke:#000000" />
  <path
     d="m 716,845.6 v -0.1 l -0.1,-0.3 -3.3,-9.3 -1.6,-10.2 0.5,-4.9 -0.3,-4.9 -3.2,-9.8 -5.4,-5.9 -9.8,-4.2 -2.7,-2.5 1.6,-3.5 9,-6.9 -1.2,-4.1 -3.4,-1.8 -2.6,-0.2 -1.9,-2.3 -0.7,-1.9 -0.9,-1.7 0.1,-5.4 0.8,-6.3 -2.5,-21.3 0.6,-8 3.4,-5.8 2.7,-6.8 1,-11.9 0.4,-0.1 5.5,-4.9 1.7,0.8 2.3,-0.5 2.4,-1.4 1.7,-1.8 -0.9,-2.3 -0.4,-0.6 8.7,-3.9 5.8,-1.5 1.7,-1.4 2.8,-3.4 1.1,-2.2 0.5,-2.8 0.6,-2.2 4.3,-5.1 2.6,-4.4 1.6,-1.1 2.4,-0.4 1.6,-0.9 1.4,-2.1 1.1,-2.6 0.6,-2.2 0.8,-5.7 -0.2,-5.3 -0.2,-1.9 11.9,8.1 6.8,0.4 6,-4.2 3.6,-0.2 3.5,1.3 3.2,2 2.9,2.6 -1.3,3.6 -4.1,7.8 1.7,3 21.1,5.4 14.3,7.7 0.9,1.3 -0.1,1.9 0.2,2 2.1,4 1.1,3.5 -2.5,1.4 -2.8,-0.3 -2.9,0.9 -2.2,3 -1.5,3 0.6,3.5 2.4,3.6 3.2,1.5 12.6,-2.5 2.4,1.7 -1.4,0.8 -3.1,0.8 0.9,2.1 12.4,3.5 20.4,0.7 6.9,-1.5 5.9,-4.7 7.4,-8.5 2.4,-1.1 5.2,-0.5 6.7,0.8 5.7,3.6 2.9,4.4 9.1,5.4 h 0.1 l -0.1,0.2 v 0.1 l -0.2,0.1 -0.7,0.2 -0.6,0.3 h -0.2 l -0.1,0.5 -0.2,0.6 -0.2,0.6 -0.1,0.1 -0.1,0.4 v 0.1 H 908 l -0.6,0.3 -0.4,0.1 -0.3,0.2 -0.3,0.1 h -0.1 l -0.2,0.4 -0.2,0.3 -0.1,0.2 -0.1,0.2 -0.1,0.1 -0.1,0.2 -0.4,0.8 -0.2,0.2 -0.1,0.2 -0.6,1 -0.1,0.1 -1.4,1.6 -0.2,0.1 -1,0.6 v 0.1 l -0.3,0.2 -0.2,0.2 -0.4,0.2 -0.2,0.2 -0.8,0.6 -0.6,0.4 v 0.1 h -0.1 l -0.1,0.1 -0.1,0.1 -0.3,0.2 -0.2,0.2 -0.1,0.1 -0.4,0.4 h -0.1 l -0.2,0.2 -0.3,0.3 -0.3,0.2 -0.1,0.1 h -0.1 l -0.4,0.2 -0.3,0.2 -0.5,0.3 h -0.1 l -0.2,0.2 -0.3,0.1 -0.7,0.4 -0.4,0.2 -0.1,0.1 h -0.1 l -0.5,0.6 -0.9,1.2 -0.3,0.3 -0.1,0.2 -0.3,0.4 -1,0.8 -2.8,3.1 -0.3,0.1 -0.5,0.4 -0.2,0.2 -0.5,0.4 -0.6,0.4 -0.2,0.2 -0.1,0.1 -0.2,0.2 v 0.1 l -0.7,0.6 -0.2,0.2 -0.1,0.2 -0.2,0.2 -0.2,0.3 -0.2,0.2 -0.6,0.6 -0.3,0.2 -0.2,0.3 -0.1,0.1 -0.4,0.4 -0.3,0.4 -0.4,0.4 -0.4,0.5 -0.2,0.3 -0.4,0.4 -0.2,0.2 -0.3,0.4 -0.1,0.2 -0.2,0.2 -0.5,0.1 v 0.1 l -0.4,0.2 -0.5,0.3 -0.1,0.2 -0.1,0.4 -0.1,0.1 -0.7,0.3 -0.1,0.1 h -0.2 -0.1 l -0.3,-0.2 -0.1,0.1 0.1,0.3 v 0.4 0.3 0.3 0.4 0.2 l -0.2,0.1 -0.3,0.3 -0.4,0.3 -0.3,0.3 -0.2,0.1 -0.2,0.3 -0.3,0.4 -0.3,0.5 -0.2,0.4 -0.3,0.4 -0.3,0.5 -0.2,0.2 -0.8,0.9 -0.2,0.1 -0.6,0.3 -0.7,0.3 -0.3,0.1 -0.1,0.8 v 0.5 l -0.6,0.6 -2.7,4.3 -3.4,2.6 -3.6,4 -9.8,14.4 -3.8,4 -0.5,1.1 -0.7,2.8 -0.3,0.7 -0.2,0.1 -0.3,0.4 -0.4,0.5 -0.1,0.2 -1.5,0.5 -0.8,0.6 -0.9,1 -5.6,10.2 -0.3,0.3 -0.1,0.1 h -0.1 l -0.6,0.1 -0.6,0.1 h -0.2 l -0.1,0.1 -0.8,1.1 -0.2,0.3 -1.5,0.3 -1,0.9 -0.6,1.2 -1.6,4.4 -6.9,9.3 -2.2,5.2 h -0.1 v 0.1 l 0.1,0.1 0.1,0.2 0.1,0.2 0.1,0.4 v 0.1 l 0.1,0.3 0.2,0.6 v 0.2 l 0.1,0.3 0.2,0.6 0.1,0.1 0.7,2 0.6,2.1 0.6,5.9 0.3,1.6 0.2,0.8 1.2,1.8 2,2.1 0.5,1.1 0.4,2.2 1.2,12.7 -0.3,2.1 -1,2.6 -0.2,0.1 -0.2,0.3 -0.2,0.5 v 0.3 l -0.1,0.4 -0.1,0.5 0.1,0.1 -1.1,4.3 -1.5,3 -0.5,1.7 0.6,0.7 0.4,-0.2 1.2,-1.6 1.4,1.1 h -0.1 l -0.3,0.1 2.9,2.1 2.7,3.5 1.7,1.2 4,2.3 1.1,1.4 v 1.2 l -0.8,2.7 -0.1,1.9 0.4,1.3 1.5,2.5 0.1,0.3 0.1,0.5 -0.5,1 -0.5,1.2 -1.8,-0.8 -2.1,-1.8 -1.6,-0.9 -1,-0.3 -1.7,-2.4 -0.8,-0.7 -0.1,-0.1 -0.6,-0.1 -0.3,-0.1 h -0.1 v 0.1 l -2,0.6 -2.9,-0.3 h -0.4 l -1.1,0.1 -0.8,0.1 -2,-0.2 -2.2,-1.6 -3.4,-3.7 -1.4,-0.5 -0.4,-0.1 -1.9,1.8 -3.2,-1.5 -7.1,-0.3 -3.3,-1 -4.6,-4.7 -1.9,-0.7 -5.1,0.2 -4.2,-1.4 -0.7,-0.5 -0.2,-0.9 0.3,-0.9 -0.1,-1 -1,-1.1 -0.7,-0.1 -2.2,0.2 h -0.9 l -1,-0.5 -3,-1.9 -6.4,-1.2 -2.6,-1.9 -0.6,-4.4 -1.1,-4.9 -2.6,-4.3 -3.3,-3.1 -4.9,-2.4 -3.3,-3.1 -1.7,-0.9 -1.8,0.3 -1.6,1.4 -1.3,1.6 -0.9,0.6 -1.4,-1.1 -3.1,-4.7 -1.5,-1.6 -0.9,-0.3 -1.4,0.3 h -0.7 l -0.9,-0.7 -1.7,-1.6 -0.9,-0.7 -1.7,-0.4 -6.5,0.7 z"
     id="PLPK"
     name="Subcarpathian"
     style="fill:#faedcd;fill-opacity:1;stroke:#000000" />
  <path
     d="m 120.5,563.7 1.7,-1 14.5,-7.5 2.6,-0.1 5.3,4.6 2.7,0.3 4.6,-8 3,-3.6 6.6,-2.3 12.8,7 6.4,-1.6 10.1,-13.3 8.9,-17.4 1.9,-1.5 3.2,-1 2.8,-2.8 1.3,-3.8 1.8,-2.5 13.7,2.6 2.5,2.6 0.3,5.1 5,6.4 7.2,-1.6 5.5,-4.8 4.5,-7.2 7.9,-1.6 3.7,1 10.2,5.6 1.6,3.7 0.3,4.7 3.9,7 8.8,4.9 5,5.5 10.4,3.7 18.8,-3.3 3.4,-7.8 3.8,-0.8 10.7,0.1 10,2.7 9,5.9 -0.9,4.2 -1.2,3.6 -2.2,1.4 -1.3,3.1 0.5,6.3 2.2,5.4 5.3,1.2 5.6,-1.1 3.4,1 3.3,2.6 -2.6,6.1 1.1,14.9 1.2,7.2 -3.1,1.8 -3.1,0.8 -3.1,-0.2 -3,1 -2.3,2.5 -5.3,12.2 -1,3.5 -0.6,3.8 -1.4,4.3 -2.9,2 -4.3,5.6 -3.3,7.5 -7.5,11.2 -6.5,12.5 -2.1,8 -3.3,5.6 -5.5,0.9 -4.7,3.7 -6.6,16.3 -0.4,1.7 -2.5,-1.5 -2.1,-0.3 -1.8,1.2 -0.7,0.3 v 1.6 0.4 l 0.6,0.8 0.2,0.3 0.2,0.3 2,2.9 1,2.6 0.7,3.1 0.8,2.7 1.7,1.8 2.3,1.3 1.6,1.8 1,2.5 0.1,3.5 1.2,1.5 0.1,1.4 0.1,0.5 -0.6,1.2 -1.1,-0.4 -0.4,-0.6 -0.4,-0.6 -0.2,-0.2 -0.1,-0.3 -0.3,-0.6 -0.6,-0.4 h -1.3 l -0.2,0.4 v 1.7 l -0.2,0.5 -0.9,0.1 -1.6,-0.6 h -0.8 l -1.1,0.8 -1.5,2.1 -0.9,0.7 -1,0.3 -0.7,0.2 -0.4,0.1 -1.8,-0.2 -1.8,0.3 -1.8,1.5 -0.2,0.2 -0.1,0.1 -0.3,0.4 -1.3,2 -1,2 -0.5,0.7 -0.1,0.2 -0.4,0.5 -0.1,0.1 -2,1.5 -0.3,0.4 -0.3,0.4 -1.7,2.3 -0.1,0.1 -0.3,0.5 -0.1,0.1 -3.7,0.3 -3.8,-2 -3.1,-2.9 -1.6,-2.1 -0.6,-1.2 -0.3,-0.6 -1,-4.8 -1,-2.7 -2.7,-2.8 -1.2,-2.1 -1.3,-1.8 -2.3,-4.2 -1.3,-1.9 -2,-1.4 -4.1,-1.5 -1.6,-2.1 -0.2,-1.3 0.1,-1.3 -0.1,-1.3 -0.6,-1.3 -0.9,-0.3 h -4.1 l -0.3,0.1 -0.5,0.2 -0.3,0.1 -0.6,0.5 -0.7,0.2 -1.2,-1 -0.4,-0.8 -1.2,-3.6 -2.9,-0.6 -0.9,-2.5 0.6,-1.8 v -0.4 l -0.1,-0.3 v -0.3 h 0.2 l 0.5,-0.1 -0.1,-0.4 v -0.2 h 0.7 l 0.2,-0.1 -0.1,-0.3 h 0.6 l 0.5,-0.4 0.3,-0.2 0.5,-0.2 1.4,-1.1 1.6,-1 1.4,-1.2 0.2,-0.4 0.5,-1.4 1.4,-0.5 0.7,0.2 2.2,0.6 1.6,-0.3 0.6,-0.9 0.1,-0.1 0.1,-0.2 0.4,-0.4 h 0.1 l 1.4,-1.4 0.8,-1.1 h -0.3 v -0.2 -0.6 l 0.1,-1.1 0.2,-0.7 0.4,-0.8 0.2,-0.4 v -0.5 l -0.3,-1.1 0.9,-0.4 1.9,-0.8 V 683 l -0.8,-2.5 -7.7,-8.2 -2.8,-1.6 -3,-0.7 -3.3,-0.1 -0.4,0.1 -0.7,0.1 -0.7,1.5 -0.7,1.8 -0.3,0.4 -0.5,0.7 -0.3,0.3 -1.5,0.3 -1.4,-0.6 -2.8,-2.2 -3.9,-0.4 -1.8,1.8 -0.2,0.2 -0.4,0.4 -3.1,3 -0.1,0.1 -3.9,0.7 -0.1,-0.5 -0.1,-0.4 0.1,-0.5 0.1,-0.4 0.8,-0.6 0.1,-0.2 0.4,-0.3 0.1,-0.2 0.2,-1.5 -0.2,-0.6 -0.3,-1.4 -0.8,-1.9 -1.2,-2.3 -1.2,-1.1 -1.5,-0.3 -1.9,0.8 -0.7,0.2 -1.8,0.7 -0.3,0.1 -0.7,0.3 h -0.3 -0.6 -1.6 l -0.6,-0.2 -4.6,-7.8 -0.3,-0.9 -0.2,-0.9 -1.6,-0.2 -0.6,-0.1 -0.1,0.1 -2.6,0.6 -1.2,0.3 -3.7,0.9 -0.9,-0.3 -0.7,-0.7 -1.2,-1.8 -1,-0.7 -9.6,-3.4 -1.3,-0.4 -0.3,-0.1 -0.4,-0.2 -2.1,-0.7 -0.6,-0.2 -0.6,-0.2 -3.3,-1.2 -1.9,0.2 -1.8,0.1 -0.9,1.1 -0.9,1.5 -0.1,0.1 -0.9,1 -0.1,-0.1 -1.1,-0.3 -0.6,-1.2 v -1.4 l 0.3,-1.4 v -1.4 l -1.1,-2.7 -1.4,-1.2 -1.6,-0.7 -1.8,-1.4 -1,-1.6 -1.1,-2.4 -0.8,-2.5 -0.3,-2.1 0.6,-2.6 0.8,-1.5 0.1,-1.4 -1.4,-2.4 -2.4,-1.2 -5.2,-0.1 -0.9,-2.1 -0.4,-2.2 -1.1,-0.5 -0.2,0.2 -0.6,0.4 -0.3,0.2 -0.8,1.9 -0.3,1.5 -1.1,0.2 -1.2,-0.6 -1.1,-1.1 -0.8,-1.4 -4.6,-1 -1.2,-1.2 h -0.3 v 0.7 h -0.4 v 0.1 l -0.5,0.6 -1.3,1 -0.3,0.1 h -0.2 l -0.5,0.3 -0.5,0.3 -0.4,0.5 0.4,1.7 1.5,1.1 1.3,2 0.1,4.1 v 0.1 l -0.2,0.8 -0.6,0.6 -0.3,0.4 -0.3,0.5 -0.1,0.8 0.1,0.5 0.1,0.4 0.1,4.4 v 0.6 l -0.2,1.3 -10.3,-0.8 -3.3,0.9 h -1.2 l -0.8,-0.1 0.1,-2.6 1.2,-2.2 3.3,-3.6 4.5,-10.9 4.1,-10.3 0.3,-1.6 v -2.8 l 0.1,-1.4 0.5,-1 0.7,-0.7 0.6,-1 0.2,-1.8 0.1,-3.7 0.8,-4 1.2,-3.9 1.5,-3.1 -0.3,-0.4 -0.4,-0.4 0.5,-4.2 -1.3,-2.9 -2.1,-2.4 -1.6,-2.9 -0.3,-1 -0.4,-2.7 v -0.1 z"
     id="PLDS"
     name="Lower Silesian"
     style="display:inline;fill:#faedcd;fill-opacity:1;stroke:#000000" />
  <path
     d="m 456.6,621.9 -3.1,11 -1.1,1.4 -0.7,2.2 0.6,3.3 1.2,2.6 -0.7,5.1 -7.1,4.6 -2.4,5.1 -1.6,9 -2.2,5.9 1.8,5.4 2.4,3.3 2.9,2.3 2.9,3.1 1.1,5.1 -13.2,-0.1 -2.7,0.6 -1.2,3.2 1,2.6 -0.1,2.5 -2,1 -2,0.3 -0.8,3 1.5,18.2 -0.1,7.3 -0.9,4.1 -8.8,4.1 -5.5,4.1 -11.4,2.4 -5.4,10.6 v 0.3 0.4 l -0.1,1.7 -1.1,-0.3 -0.4,-0.1 0.4,3.2 0.5,0.2 0.7,-0.2 h 0.8 l 0.6,1 0.1,1.4 -0.4,0.6 -0.2,0.1 -2.8,0.8 -3.6,0.1 -0.6,0.2 -1.1,0.2 -2.3,2.2 -0.3,0.2 -3.3,1 -3.3,-0.7 -5.9,-5.8 -1,-1.4 -0.7,-1.7 -0.5,-1.8 -0.7,-1.5 -1,-1.2 -0.8,-0.9 -0.3,-0.8 0.3,-0.8 0.8,-0.7 0.1,-0.1 v -0.1 -0.1 l -0.1,-0.2 -1.2,-0.3 -2.5,-1.2 -1.2,-0.3 -1,0.2 -0.7,0.5 -1,0.1 -1.4,-0.6 -4.4,-5.6 -0.2,-1 0.7,-1.5 0.4,-0.2 0.6,-0.3 h 0.9 l 3.5,-0.1 2.4,-1 1.3,-0.8 1.6,-0.9 1,-0.6 1.3,-1.2 0.5,-0.4 0.8,-2.1 -1.4,-2.7 -0.9,-0.9 -0.2,-1.5 0.1,-1.3 1,-2.6 0.2,-0.5 0.1,-0.4 v -0.4 l -0.3,-0.3 -1.6,-2.2 -0.5,-0.5 -1.6,-0.6 -0.4,0.2 -0.2,0.2 -0.2,1 -0.5,1.1 -1.4,2 h -0.1 l -0.4,0.6 -0.2,0.3 -0.3,0.4 -0.3,0.4 -1.6,1.3 -2.1,0.6 -7,-1.3 h -0.1 l -1,-0.2 -4.1,0.4 H 349 l -1.6,2 -1.1,1.3 -0.4,0.3 -0.5,0.1 -0.5,-0.1 -0.5,-0.3 -0.3,-1.1 -0.5,-1.6 -2,-1.6 -2,0.2 -0.5,1.2 -0.2,0.7 -0.3,0.7 -1.2,-0.9 -0.6,-1.5 -0.2,-1.8 0.1,-1.8 -0.4,-0.4 -0.4,-0.4 -0.3,-0.5 -0.2,-0.5 1.2,-0.5 h -0.3 v -0.5 l -1.1,-0.5 -4.3,0.1 -2.2,-0.6 -3.2,-2 -0.8,-1 -0.6,-1.2 -0.6,-1.9 v -0.2 l -0.3,-1.3 0.2,-0.4 -1,-0.3 -2.8,0.5 h -1.2 l -1.2,-0.6 -2.1,-1.8 -1,-0.6 -9.3,-2.6 -2.1,0.2 -1.4,-0.8 0.4,-1.7 6.6,-16.3 4.7,-3.7 5.5,-0.9 3.3,-5.6 2.1,-8 6.5,-12.5 7.5,-11.2 3.3,-7.5 4.3,-5.6 2.9,-2 1.4,-4.3 0.6,-3.8 1,-3.5 5.3,-12.2 2.3,-2.5 3,-1 3.1,0.2 3.1,-0.8 3.1,-1.8 3.1,-0.2 3,1.6 1.2,3.1 0.5,3.5 4.8,3.9 5.8,0.3 10.7,-4 10.4,-6.2 2,3.7 2.7,2.1 20.3,5.3 6.4,-0.2 1.2,-1 0.8,-1.5 1.1,-0.7 2.4,3 2.1,4.1 z"
     id="PLOP"
     name="Opole"
     style="fill:#faedcd;fill-opacity:1;stroke:#000000" />
  <path
     d="m 866.8,433.2 -0.7,0.6 h -1.6 l -2.9,-1.7 -1.7,-0.5 -1.2,0.6 -1.4,0.9 -1.4,0.5 -1.5,-0.9 0.2,-0.7 0.5,-1.6 0.4,-0.8 -2.5,-3.1 -1.7,-1 -1.9,1.1 -0.8,-3.4 -2.1,-2 -2.7,-0.9 -7.1,1 -14.1,-2.9 -4.8,0.2 -2.2,-0.5 -1.1,-1.8 -1.5,0.7 -1.9,-1.4 -1.5,-2.2 -0.6,-1.6 0.5,-4.9 -0.2,-0.7 -1.3,-0.2 -0.7,-0.7 -0.5,-1.3 -0.3,-1.9 0.1,-1.3 0.4,-1.2 0.3,-1.2 -0.2,-1.5 -0.7,-0.9 -2,-1.7 -1.9,-2.6 -5,-5.4 0.2,-3.3 -0.2,-5.5 -1.1,-5.3 -0.6,-7.8 -1.4,-7.1 -5.3,1.5 -5.1,2.6 -2.8,-2 -2.3,-3.2 1.4,-8.3 -4.4,-3.3 -4.5,4.9 -6.9,1 -6.4,-3.4 -2.4,-4.4 -1.3,-5.5 -1.3,-3.7 -2.2,-2.3 -3.5,-1.9 -2.3,-4.2 -0.4,-3.8 1.5,-2.7 -4.2,-3.3 -5,-0.7 -4.8,-2.6 -3.3,-6.5 -5.1,-12.7 -2.3,-17.5 -1.4,-5.9 -2.1,-5 -1.2,-5.3 6.6,-2.9 13,0.8 5.7,-2 2.6,-2.1 2.9,-1.3 6.8,-1 15.7,-10.7 8.8,-10 25.2,-15.8 5.3,-5.5 3.1,-8.9 3.7,-7.1 0.3,-7.2 -9.6,-13.5 -4.6,-4.5 -1,-4.3 -0.5,-4.6 -9.1,-12.3 8.5,-12.2 20.3,-2.8 6,-4.1 5.2,-5.5 2.2,-7.5 -0.2,-1.2 0.1,-0.2 2.3,-1.1 1.9,0.3 5.5,2.8 0.9,0.1 2.1,-0.4 0.9,0.2 1,1 0.5,1.2 0.4,1.2 0.6,1 1,0.7 3.1,0.4 0.6,0.8 -0.3,1.5 -0.6,1.8 v 1.6 l 1.7,2.3 h 2 l 2.2,-0.9 1.8,-0.4 1.7,0.8 5.6,4.7 3.5,2.1 7.3,2.8 1.8,1.6 1.7,1.4 0.9,1.4 1.6,3.1 0.8,1.2 1,0.7 1.9,0.5 0.9,0.5 1.5,2.2 1.2,3.1 1,3.5 0.7,3.3 1.3,7.2 0.1,3.5 -1.4,2.4 -1.1,0.9 -0.5,0.6 -0.4,0.7 -0.1,1.6 0.4,1.4 0.8,1.2 0.9,0.8 0.6,0.6 0.2,0.8 v 0.9 l -0.4,0.9 0.1,4.5 0.9,3.7 1.2,3.6 1,3.9 0.8,8.1 1,3.2 2.2,3.2 0.2,9.5 2.1,10.6 7.7,23.8 4.3,8.9 1.8,4.8 3.7,14.4 1.6,4.3 1.6,2.2 0.9,2.1 0.7,2.2 1.1,2.4 1.6,1.8 1.6,1.2 0.9,1.8 -0.2,3.7 -0.8,2.1 -1.1,1.9 -0.9,2 -0.1,3 0.8,2.6 2.7,3.5 1.1,2.2 0.1,1.2 -0.2,1.8 v 1 l 0.8,4.2 v 1.2 l -0.3,0.9 -1,2 -0.2,1.2 0.1,1.6 0.3,0.9 0.3,0.8 0.3,1.1 0.7,18.2 0.2,4.5 -1.2,6.4 -3.6,4.5 -12.1,8.3 -15.1,4.3 -8.1,4.7 -8,6.7 -11,17 -3.7,4.5 -1.6,2.6 -4.2,8.6 0.2,0.1 z"
     id="PLPD"
     name="Podlachian"
     style="fill:#faedcd;fill-opacity:1;stroke:#000000" />
  <path
     d="m 833.7,112.9 0.2,1.2 -2.2,7.5 -5.2,5.5 -6,4.1 -20.3,2.8 -8.5,12.2 9.1,12.3 0.5,4.6 1,4.3 4.6,4.5 9.6,13.5 -0.3,7.2 -3.7,7.1 -3.1,8.9 -5.3,5.5 -25.2,15.8 -8.8,10 -15.7,10.7 -6.8,1 -2.9,1.3 -2.6,2.1 -5.7,2 -13,-0.8 -6.6,2.9 -11,0.9 -2.2,1.2 -2.6,5.2 -3.7,2.6 -4.1,0.6 -8.1,-0.7 -6.9,8.2 -8.1,2.6 h -8.7 l -6.6,3.8 -5.8,1.2 -6.5,-0.1 -3.3,2.7 -3,3.6 -12.7,7.3 -3.3,1 -3.5,-0.3 -2.8,2.2 -1.5,5.1 -2.4,2.7 -2.7,1.4 -6.9,1.3 -28.6,-4.5 -0.8,-0.9 -0.6,-1.4 -1.4,-0.9 -1.6,-0.4 -3.6,1.2 -2.3,4.6 -2.6,2.2 -3.2,0.8 -1.3,-13.8 -4.7,-11.9 -5.1,-3.6 -10.3,-2.7 -9.7,-5.9 -7,-2.3 h -1.7 l -2.1,-0.9 -1.4,-2.1 -2.8,-5.2 -2.2,-6.6 -7.9,-15.3 13.4,-25 3.2,-3.5 3.8,-2.4 7.4,0.5 5.1,-2.3 0.2,-2.5 1,-1.7 1.5,-4.4 1.6,-1.6 1.1,-2.1 v -2.6 l 0.4,-2.4 -4.6,-1.3 -8.9,0.8 -3.3,-1.6 1.8,-6.1 -2.4,-3.2 -4.6,-0.6 -4.4,-2.6 -3,-5.1 -1.7,-6.6 -0.2,-3 1.4,-2.2 4,-4 1.4,-2.5 1,-2.9 -0.9,-3.8 -1.9,-3.3 -2,-6 0.6,-5.3 2.2,-2.5 8.1,1 2.1,-0.2 v 1.1 l -0.8,0.8 -0.7,1.4 -0.3,1.9 -0.1,2.3 1.2,-1.2 1.6,-4.3 0.7,-0.9 0.5,-0.6 2.3,-3.7 2.3,-2.2 1.2,-0.7 1.1,-0.3 7.1,-4.5 1.5,-0.6 3.6,-0.5 5.8,-4.3 1.3,-0.5 1.3,-0.2 0.8,-0.9 0.4,-1.7 0.7,-1.5 1.5,-0.3 -0.2,-0.7 -0.2,-1.7 -0.2,-0.7 1,0.1 0.4,-0.2 18.7,1 35.2,1.9 26.2,1.4 26.2,1.4 32.4,1.7 39.4,2.1 25.2,1.4 25.2,1.3 21.2,1.1 17.1,0.9 6.2,-2 1.7,-1.4 z"
     id="PLWN"
     name="Warmian-Masurian"
     style="fill:#faedcd;fill-opacity:1;stroke:#000000" />
  <path
     d="m 120.5,563.7 -0.4,-3.8 0.8,-1.8 -0.9,-2 -1.7,-1.8 -1.4,-1.1 -2.1,-1 -4.2,-1.2 -2.1,-1.2 -1.9,-1.4 -6,-2 -2,-2.1 -0.3,-1.6 -0.2,-1 0.8,-2.8 1.7,-2.9 1.1,-2.9 -0.1,-3.8 -0.9,-3.7 -1.2,-2.6 -4.4,-3.6 -2.1,-2.4 -0.9,-3.8 -0.3,-3.8 -1.3,-1.7 -1.6,-1.2 -1.5,-2.3 -0.3,-3.1 1.2,-2.5 5.2,-5.3 1.7,-2.3 1.4,-2.6 0.7,-2.9 0.3,-9 0.5,-1.4 2,-3.6 0.4,-1.4 0.1,-1.3 0.3,-1.4 0.7,-1.2 1.7,-2.1 -5.9,-4.4 -0.9,-2.2 0.5,-3.8 1,-2.7 0.4,-2.1 -1.3,-2.1 v -0.9 l 1.7,-2.3 0.1,-3.1 -1.5,-2.6 -2.5,-1.1 -2.6,-0.6 -3.1,-1.6 -2,-2.3 0.6,-2.7 -1.9,-4.3 -2.2,-6.5 -0.5,-5.9 4.7,-4.1 2.2,-3.5 1.5,-3.5 -0.4,-1.6 -1.7,-1.6 0.7,-3.4 2.5,-5.4 -2.8,-2.3 -0.5,-0.6 2.2,-8 2,-3 7.7,-1.2 4.6,-1.9 7.1,-10.1 5.8,-12.7 8.8,-4.9 15.1,5 4.8,-0.6 5.6,-6.5 3.4,-6.6 -2.5,-0.4 -1.7,-2.5 5.1,-0.2 15.4,-5.3 h 18.7 l 4.5,-3.3 8.2,-10.5 4.7,-3.8 5,-0.6 4.5,1 2.4,7.4 -1.6,7.1 -1.8,8.7 0.3,9.6 -8.9,11.4 2.8,2.6 2,7.4 -0.9,2.3 -1.7,1.2 -8.6,2.7 -1.4,-0.2 -0.6,1.4 -0.1,3.4 -0.4,3.2 0.3,8.3 3.2,8.8 1.1,5.2 0.7,5.5 v 4.4 h -2.4 l -1.9,1.4 3.8,6.8 1.8,4.4 0.2,9.2 -2.9,8.7 -0.5,2.1 -0.2,2.3 -1,4.4 -0.1,4.9 0.7,4.7 2.1,3.2 2.5,2.5 5,2.7 1.6,4.6 2.1,3.8 3.3,3.3 h 3.3 l 1.6,-0.6 1.5,0.9 0.1,3 -0.8,2.8 -0.4,5.1 1.3,3.9 3.9,2.7 4.2,1.3 6.6,-4.5 5.9,6.5 2.9,11 -4.5,7.2 -5.5,4.8 -7.2,1.6 -5,-6.4 -0.3,-5.1 -2.5,-2.6 -13.7,-2.6 -1.8,2.5 -1.3,3.8 -2.8,2.8 -3.2,1 -1.9,1.5 -8.9,17.4 -10.1,13.3 -6.4,1.6 -12.8,-7 -6.6,2.3 -3,3.6 -4.6,8 -2.7,-0.3 -5.3,-4.6 -2.6,0.1 -14.5,7.5 z"
     id="PLLB"
     name="Lubusz"
     style="fill:#faedcd;fill-opacity:1;stroke:#000000" />
  <path
     d="m 219.2,325.3 1.6,-7.1 -2.4,-7.4 -4.5,-1 -5,0.6 -4.7,3.8 -8.2,10.5 -4.5,3.3 h -18.7 l -15.4,5.3 -5.1,0.2 1.7,2.5 2.5,0.4 -3.4,6.6 -5.6,6.5 -4.8,0.6 -15.1,-5 -8.8,4.9 -5.8,12.7 -7.1,10.1 -4.6,1.9 -7.7,1.2 -2,3 -2.2,8 -5.3,-5.9 -5.4,-2.2 -2.6,-3.6 -1.8,-0.8 -0.9,-0.9 -3.1,-6.1 -1.4,-1.7 -9.7,-7.1 -2.4,-1.4 -3,-3.5 -1.8,-0.8 -2,-0.1 -1.9,-0.6 -1.6,-1.3 -1,-2.1 2.4,-2.1 0.9,-1.8 0.4,-2.8 -0.2,-1.9 -1.1,-5.4 -0.6,-1.5 v -0.9 l 4.4,-3.3 5.5,-2.9 5.4,-4.3 2.8,-2.9 1.2,-2.7 0.2,-1.3 2.8,-8.5 -0.2,-2.2 -0.6,-2.2 -0.3,-2.4 0.2,-2 0.7,-1.9 0.9,-1.3 1,-0.6 0.6,-1 2.4,-4.6 -1.2,-1.1 -0.4,-0.9 -1.3,-1.2 -0.6,-0.9 -0.3,-1.5 v -2.8 l -0.2,-1.3 -0.6,-2.8 -1.9,-8.9 -0.9,-7.9 -1.9,-3.2 -1,-3.2 -2.2,-3.4 -0.6,-3.1 -0.1,-3.4 0.2,-5.6 -0.1,-1.5 -1.9,-5.9 -1.4,-3 0.4,-2.4 -0.1,-4.3 v -0.1 l 0.8,-0.1 1.7,-0.7 1.2,-1.1 0.1,-1.2 -1.6,-1.1 0.9,-0.6 0.3,-0.5 -0.3,-0.5 -0.9,-0.5 0.5,-1.2 0.9,0.8 1.3,0.7 1.1,0.8 1,3 1.3,1 2.5,1.1 1.8,2 1,0.8 4,0.7 4.9,1.8 1.7,1.3 1.4,2 3,5.7 1,1.4 0.5,-0.4 0.1,-2.5 0.4,-1.4 0.8,-1 1.2,-0.9 -0.1,-0.6 v -0.6 l 0.1,-0.9 -1,-0.3 -2.3,-0.2 -1,-0.6 -2.8,-6.8 0.5,-3.4 2.3,-6.6 1,0.9 0.9,-0.3 1,-0.5 1.4,-0.1 -0.6,-3.9 0.3,-3.1 0.6,-2.7 0.3,-2.9 h -0.6 l -0.2,1.8 -0.7,1.2 -2.2,2.2 0.6,1.1 -0.8,-0.3 -0.7,-0.5 -0.5,-0.5 -0.5,-0.8 0.5,-0.5 0.8,-1.1 0.6,-0.5 -1.2,-2.6 -2.2,-1.3 -10.1,-1 -1.4,-1.6 1.2,-3 -0.3,-0.3 h -0.1 v -0.2 l -0.2,-0.5 -0.9,1.5 -0.7,0.2 -0.8,-0.4 -1.1,-0.3 -0.7,0.3 -0.7,0.8 -0.6,1 -0.7,1 2.7,0.5 1.4,0.7 0.8,1 -0.2,1.9 -0.9,1.3 -1.2,0.5 -0.8,-0.6 -2.5,1.6 -1.2,0.4 -1.3,0.1 v 1.1 l 1.2,0.5 v 0.3 l -1.2,0.2 -0.9,-0.1 -1.4,-0.7 -1.1,-0.2 -1.5,-1 -4.3,-6.4 -2.2,-0.9 h -0.2 l -0.7,-2.4 -1.6,-2 0.9,-0.2 0.7,-0.6 1.6,-4.1 1.5,0.7 1,0.8 2.7,1.1 9,0.7 3.6,-0.7 3.5,-1.9 6.6,-4.8 24,-10.7 20.7,-5.5 25.2,-10.7 16.4,-4.4 17.9,-4.8 17.6,-8 14.6,-1.8 10,-3.4 -1.1,1.1 -4.5,2.1 1.9,1.4 8,-1.4 v -1 h -0.6 V 131 h 4.3 v -0.8 l -0.1,-0.1 h -0.2 l -0.3,-0.2 0.2,-2.5 -2.1,-0.1 -4.9,1.5 3.1,-1.5 3.8,-2.5 5.6,-6.6 -1.2,2.3 -2,2.2 -0.8,1.1 0.8,-0.3 1.7,-0.3 1.4,-0.6 1.3,-1.5 3.2,-1.5 1.1,-1.4 -1,-2.3 h -1.8 l -0.8,1 -1.4,1.3 3.9,-6.7 10.5,-13.5 v 0.9 l -0.5,1.6 0.9,0.4 1.5,-0.6 1.1,-1.4 0.6,-2.1 -0.5,-0.6 -1.2,0.5 -1.3,1.3 1.8,-3.8 3.2,-3.1 6.2,-3.9 18.9,-2.8 0.6,-0.2 0.2,0.3 6.3,12.8 7.5,10.8 2.8,5.7 0.7,7.5 -1,4.2 -2.4,2.4 -0.7,2.8 1,2.3 1.7,2.4 0.4,3.8 -1.5,2.2 -12.6,3.2 5.8,17.6 0.7,8.5 v 8.5 l 3.9,2.8 2.2,2.6 3.4,7 2.5,2.3 2.1,3 1.7,3.6 -5,-0.6 -4.5,2.1 0.1,3 1.8,0.9 1.6,2.6 1,3.3 -2.7,4.8 -3.8,3.9 1.6,16.6 -3.4,-1.1 -3.5,0.1 -3.2,1.4 -2.4,4.2 -1.8,5 -2.3,9.7 -2.7,0.6 -16.7,-0.5 -2.1,2.9 0.1,6.1 1.4,5.4 5.7,5.6 6.9,1.7 3.3,1.8 2.9,3.6 0.5,4.4 -2.7,3.4 -2.2,3.8 -2.6,2.5 -6.7,2.1 -13.1,7.7 -7.4,11.6 -8.7,8.3 -5.6,2.2 -5.7,0.7 -5.5,-3.3 z"
     id="PLZP"
     name="West Pomeranian"
     style="fill:#faedcd;fill-opacity:1;stroke:#000000" />
  <path
     d="m 866.8,433.2 0.7,0.6 1,1.5 0.3,1.9 -0.8,2.7 2.1,1.3 6.5,1.7 1.4,-0.5 1.2,1.2 5.6,2.1 1.9,0.2 v 0.9 l -0.6,1.4 0.2,0.3 1.3,-0.6 1.2,0.6 0.8,0.8 0.8,0.2 1.3,-1.6 0.4,0.7 0.9,0.8 0.6,0.7 1.5,-1.5 0.3,1.1 -0.2,1.8 -0.4,0.5 2.5,5 1.8,0.6 4.3,-0.1 1.7,1 0.6,1.2 0.5,1.2 0.5,0.9 0.9,0.4 1.1,0.7 0.3,1.8 0.1,1.7 0.8,1.8 1.3,5.6 1,2.5 -1.4,1 -1.2,1.9 -1.7,4.1 -0.6,2.7 -0.1,4.8 -0.6,1.6 0.4,0.2 h 0.1 l 0.1,0.2 v 0.6 l -1,0.7 -0.4,3.1 -1,1.3 1.4,2.6 1.7,2.3 -1,3.4 -1.8,1.7 -1.9,1.2 -1.5,1.8 -0.4,1 -0.4,1.6 -0.5,3.4 0.3,0.7 0.7,1.1 0.2,0.9 -0.9,0.4 -0.3,0.4 0.3,0.9 0.5,1 0.5,0.7 -1.2,1.4 -0.6,0.4 -0.8,0.1 v 1.1 l 1.1,1.1 0.1,1.4 -0.5,4 0.3,2.1 0.8,2 2,3.4 -0.6,0.1 -0.6,-0.1 1.1,2.3 1.4,0.6 1.3,0.7 0.3,2 0.2,0.9 0.6,2 1.4,1 0.6,0.2 1.1,0.4 0.1,0.1 1.2,0.8 -1.5,2.9 0.1,0.1 v 0.6 l 0.1,0.2 0.1,0.2 0.8,1.2 2.8,4.1 0.7,1.7 -1,0.5 -0.2,0.3 -0.2,0.3 -0.1,0.2 -0.2,0.2 v 0.4 l -0.1,1.1 0.2,0.6 0.1,0.3 0.2,0.7 v 0.1 l 0.1,0.3 -0.5,0.2 h -0.1 l -0.6,0.2 -0.5,0.2 v 0.1 l -1.6,1.6 -1.2,2.2 -0.5,1.9 0.6,3.1 1.4,0.7 h 0.1 l 1.6,0.1 1.6,1 0.4,0.8 3.1,7 0.2,0.4 1,2.2 0.3,0.6 0.5,0.6 1.6,1.9 1.5,1 0.9,0.6 1.8,1.1 0.4,0.2 2.2,2.4 0.2,0.1 0.1,0.2 0.4,0.4 0.4,0.3 1,1.1 0.4,0.8 0.6,0.9 -0.5,0.3 -1,0.5 -0.1,0.2 -0.2,1.1 0.2,0.5 0.3,0.7 0.1,0.2 0.7,1.5 2.4,3.7 0.8,1.9 1,6.1 v 0.9 l -0.4,1.1 0.7,0.6 1.2,0.4 1.1,0.8 1,1.5 0.2,1.2 0.1,1.3 0.5,1.9 1.4,2.3 6.1,5.7 0.5,0.2 1.1,0.6 2.8,1.6 1.4,0.8 0.2,0.1 0.8,0.4 0.1,0.1 0.7,0.3 0.1,0.2 1,1.5 v 0.1 l -1.1,2.5 -2.7,0.6 h -1.7 -0.4 -0.1 -0.8 l -1.9,0.9 -2.4,-1.4 -2.5,0.3 -1,0.8 -1.1,0.8 -1.1,2.5 0.1,1.7 v 0.4 l 0.1,0.6 0.6,0.8 0.7,1.1 2.2,1 2,0.2 0.5,0.1 v 0.9 l -0.1,0.1 -0.1,0.2 -0.4,1 h -0.1 l -0.2,0.7 -0.3,0.5 0.4,0.6 0.1,0.2 0.1,0.2 0.7,1.2 2.1,1.3 0.1,0.1 h 0.1 l 0.2,0.1 1.8,0.5 0.6,0.1 -0.5,3.3 0.5,2.2 v 0.3 l 0.1,0.2 0.1,0.3 0.2,0.6 0.2,0.5 0.1,0.3 1.5,3.5 0.3,0.7 -1.3,2.3 -0.8,1.4 0.5,3.6 0.4,3.2 0.7,1.8 0.4,0.4 -0.1,0.4 -1.1,1.6 -1.7,1.8 -0.2,0.1 -5.7,3 -0.2,1.7 0.1,2.8 -0.1,1.8 -0.5,1.6 -1.5,3.5 -0.4,1.1 -4.8,2 -16.5,0.2 -2.7,0.9 -0.4,0.1 -1.6,0.8 -1.2,1.2 -1,2.1 -1.1,3.8 h -0.1 l -9.1,-5.4 -2.9,-4.4 -5.7,-3.6 -6.7,-0.8 -5.2,0.5 -2.4,1.1 -7.4,8.5 -5.9,4.7 -6.9,1.5 -20.4,-0.7 -12.4,-3.5 -0.9,-2.1 3.1,-0.8 1.4,-0.8 -2.4,-1.7 -12.6,2.5 -3.2,-1.5 -2.4,-3.6 -0.6,-3.5 1.5,-3 2.2,-3 2.9,-0.9 2.8,0.3 2.5,-1.4 -1.1,-3.5 -2.1,-4 -0.2,-2 0.1,-1.9 -0.9,-1.3 -14.3,-7.7 -21.1,-5.4 -1.7,-3 4.1,-7.8 1.3,-3.6 -2.9,-2.6 -3.2,-2 -3.5,-1.3 -3.6,0.2 -6,4.2 -6.8,-0.4 -11.9,-8.1 -0.5,-3.1 -2.3,-8.8 -0.2,-1.4 -0.2,-0.5 -0.4,-0.2 -0.4,-0.4 -0.2,-0.8 0.1,-0.9 0.2,-0.5 0.3,-0.2 0.1,-0.5 0.6,-6.2 -0.3,-2.8 -1.6,-1.3 v -1 l 0.6,-0.1 0.8,-0.4 0.7,-0.6 0.4,-0.8 -0.4,-2 -2.2,-5.5 -0.7,-4.7 -0.8,-2.6 -0.2,-1.1 0.1,-1.7 0.3,-1.2 0.8,-2.1 1.7,-9 1.1,-2.4 0.8,-0.7 1,-0.1 -0.2,-3.1 1.1,-4.4 0.6,-4.1 -3.6,-4.4 0.2,-3.5 2.1,-1.8 2.2,-3 0.1,-6 -2.8,-0.3 v -1 l 1.4,-1.6 -0.4,-1.8 -1.6,-2.5 -0.2,-2.1 0.1,-1.7 -0.3,-1.2 -1.4,-1 -0.9,-0.1 -2.2,1 -1.6,0.2 -4.7,-1 -2.5,-1.2 -1.4,-1.6 -1.1,-1.9 -0.1,-1.5 0.9,-3.8 3.3,-0.9 3.2,1.4 6.6,1 6.5,-2.3 2.2,-2.1 0.6,-3.3 -4.5,-7.1 3.5,-4.9 5,-3.1 -3.2,-4.8 -2.2,-5.5 -0.4,-3.9 -1.8,-3.8 -1.4,-4.1 -0.6,-3.8 6.4,-4.8 6.9,-2 13.2,0.1 12.4,-2.5 4.6,0.9 3.2,-1 8.6,-6.5 3.5,-0.4 10,0.9 5,-4.1 0.5,-2.2 0.6,-1.9 1.5,-1.6 1.6,-1.1 3.7,0.9 10.7,5.5 3.5,-1.4 3,-3.8 2.6,-6.1 8.6,-12.7 2.9,-5.5 1.2,-0.6 1.7,0.5 2.9,1.7 h 1.6 z"
     id="PLLU"
     name="Lublin"
     style="fill:#faedcd;fill-opacity:1;stroke:#000000" />
  <path
     d="m 556.7,106.4 -0.4,0.2 -1,-0.1 0.2,0.7 0.2,1.7 0.2,0.7 -1.5,0.3 -0.7,1.5 -0.4,1.7 -0.8,0.9 -1.3,0.2 -1.3,0.5 -5.8,4.3 -3.6,0.5 -1.5,0.6 -7.1,4.5 -1.1,0.3 -1.2,0.7 -2.3,2.2 -2.3,3.7 -0.5,0.6 -0.7,0.9 -1.6,4.3 -1.2,1.2 0.1,-2.3 0.3,-1.9 0.7,-1.4 0.8,-0.8 V 131 l -2.1,0.2 -8.1,-1 -2.2,2.5 -0.6,5.3 2,6 1.9,3.3 0.9,3.8 -1,2.9 -1.4,2.5 -4,4 -1.4,2.2 0.2,3 1.7,6.6 3,5.1 4.4,2.6 4.6,0.6 2.4,3.2 -1.8,6.1 3.3,1.6 8.9,-0.8 4.6,1.3 -0.4,2.4 v 2.6 l -1.1,2.1 -1.6,1.6 -1.5,4.4 -1,1.7 -0.2,2.5 -5.1,2.3 -7.4,-0.5 -3.8,2.4 -3.2,3.5 -13.4,25 -4.9,2.2 -10.3,0.6 -5,-2 -2.8,-1.8 -6,-6.2 -1.4,-0.9 -1.3,-1.5 -1.7,-1 -7.4,-1.1 -5.3,1.9 -3.4,2.2 -7.7,-4.6 -16.3,-2.7 -3,-2.8 -2.7,-3.5 -3.1,-0.2 -15.4,2.3 -11.5,-2.3 -2.5,1.9 -3.7,6.8 -6.2,2.3 -2.9,2.8 -0.5,2 -0.4,2.1 v 3.3 l -5.7,2.3 -12.6,-3.3 -3.3,0.3 -2.6,3.5 -2.2,4.9 -2.7,9.6 -2.5,1.5 -4.1,-4.8 -4.8,-2.7 -18.5,-0.8 -5.3,-3.2 -3.8,-6.6 -4.3,-5.4 -1.6,-16.6 3.8,-3.9 2.7,-4.8 -1,-3.3 -1.6,-2.6 -1.8,-0.9 -0.1,-3 4.5,-2.1 5,0.6 -1.7,-3.6 -2.1,-3 -2.5,-2.3 -3.4,-7 -2.2,-2.6 -3.9,-2.8 v -8.5 l -0.7,-8.5 -5.8,-17.6 12.6,-3.2 1.5,-2.2 -0.4,-3.8 -1.7,-2.4 -1,-2.3 0.7,-2.8 2.4,-2.4 1,-4.2 -0.7,-7.5 -2.8,-5.7 -7.5,-10.8 -6.3,-12.8 -0.2,-0.3 6.8,-2.7 3.8,-0.7 3.5,-1.2 8.7,-9.6 27.3,-12.9 34.4,-6.5 15.4,-5.3 24.2,-2.2 h 14.9 l 2.1,0.7 3.2,2.9 1.3,0.7 1.9,0.4 31,18.6 5.6,7.3 0.9,1.8 1,2.4 V 80 l -1.6,0.8 -0.4,-0.5 -0.4,-1.2 -0.6,-1.1 -1.6,-1.2 -1.1,-2.9 -1.5,-1.9 -4.3,-7.4 -0.9,-0.4 -3.2,-0.6 -0.8,-0.4 -0.8,-1.4 -2.6,-0.9 -5.4,-3.8 -5.3,-2.6 -0.9,-1.2 -2.9,-2.3 -0.8,-0.3 -1.1,0.5 -0.6,0.8 -1.3,4.5 -0.2,1 v 2.3 l 0.5,0.6 2.2,1 0.5,0.6 1.1,1.9 1.3,2.9 -0.1,1.2 -0.3,1 v 1 l 1.1,1.2 -0.6,3 1.1,1.3 1.7,-0.3 1.5,-2 -0.5,2.6 0.7,2.1 1.1,1.7 2.3,7.2 0.7,1.5 -0.3,3.6 V 98 l 0.6,5.9 1.3,2.6 1.4,0.5 2.8,2.1 1.4,0.5 1.2,0.1 1.6,0.5 1.2,0.8 0.6,1.4 1.5,2.2 15.3,4.9 3.4,0.3 2.8,-1.6 0.8,0.8 1.1,0.6 2.5,0.7 34,-5.1 7.5,-3.6 3.6,-0.8 2.9,-1.4 5.5,-5.8 1.6,-0.7 1.9,1.6 4.5,1.5 z"
     id="PLPM"
     name="Pomeranian"
     style="fill:#faedcd;fill-opacity:1;stroke:#000000" />
  <path
     d="m 716.8,259.1 1.2,5.3 2.1,5 1.4,5.9 2.3,17.5 5.1,12.7 3.3,6.5 4.8,2.6 5,0.7 4.2,3.3 -1.5,2.7 0.4,3.8 2.3,4.2 3.5,1.9 2.2,2.3 1.3,3.7 1.3,5.5 2.4,4.4 6.4,3.4 6.9,-1 4.5,-4.9 4.4,3.3 -1.4,8.3 2.3,3.2 2.8,2 5.1,-2.6 5.3,-1.5 1.4,7.1 0.6,7.8 1.1,5.3 0.2,5.5 -0.2,3.3 5,5.4 1.9,2.6 2,1.7 0.7,0.9 0.2,1.5 -0.3,1.2 -0.4,1.2 -0.1,1.3 0.3,1.9 0.5,1.3 0.7,0.7 1.3,0.2 0.2,0.7 -0.5,4.9 0.6,1.6 1.5,2.2 1.9,1.4 1.5,-0.7 1.1,1.8 2.2,0.5 4.8,-0.2 14.1,2.9 7.1,-1 2.7,0.9 2.1,2 0.8,3.4 1.9,-1.1 1.7,1 2.5,3.1 -0.4,0.8 -0.5,1.6 -0.2,0.7 1.5,0.9 1.4,-0.5 1.4,-0.9 -2.9,5.5 -8.6,12.7 -2.6,6.1 -3,3.8 -3.5,1.4 -10.7,-5.5 -3.7,-0.9 -1.6,1.1 -1.5,1.6 -0.6,1.9 -0.5,2.2 -5,4.1 -10,-0.9 -3.5,0.4 -8.6,6.5 -3.2,1 -4.6,-0.9 -12.4,2.5 -13.2,-0.1 -6.9,2 -6.4,4.8 0.6,3.8 1.4,4.1 1.8,3.8 0.4,3.9 2.2,5.5 3.2,4.8 -5,3.1 -3.5,4.9 4.5,7.1 -0.6,3.3 -2.2,2.1 -6.5,2.3 -6.6,-1 -3.2,-1.4 -3.3,0.9 -0.9,3.8 0.1,1.5 1.1,1.9 1.4,1.6 2.5,1.2 4.7,1 1.6,-0.2 2.2,-1 0.9,0.1 1.4,1 0.3,1.2 -0.1,1.7 0.2,2.1 1.6,2.5 0.4,1.8 -1.4,1.6 v 1 l 2.8,0.3 -0.1,6 -2.2,3 -2.1,1.8 -0.2,3.5 3.6,4.4 -0.6,4.1 -1.1,4.4 0.2,3.1 -1,0.1 -0.8,0.7 -1.1,2.4 -1.7,9 -0.8,2.1 -0.3,1.2 -0.1,1.7 0.2,1.1 0.8,2.6 0.7,4.7 2.2,5.5 -29,6.1 -15,-4.7 -7,-0.6 -6.2,-4.1 -0.6,-2.2 -0.4,-2.4 -2.7,-3.1 -0.7,-4.8 -2.8,-1 -2.8,2.7 -2.7,3.8 -3,1.7 -12.6,2 -11,-2.3 -2.3,-1.8 -1.9,-3 -2.1,-2.4 -15,-9.2 -2.7,-6.9 -5,-1.8 -0.3,-4.2 1.2,-4 5.8,-5.4 1.5,-4 v -4.7 l -1.2,-1.3 -3.3,-1.7 -0.7,-2.3 -0.3,-4.7 -0.9,-4.5 -2.7,-6.4 2.3,-8.3 h 7.1 l 5.4,3 6.6,0.9 1.2,-2.4 0.2,-3.5 -1.4,-3.7 -4.8,-5.1 -0.9,-4.2 0.5,-1.9 0.9,-1.3 0.8,-1.7 -0.6,-2.4 -5.3,-7.2 -6.6,-5.1 -6,-2.8 -9.6,1.2 -3.3,-1.1 -0.8,-2.4 0.2,-2.8 -2.1,-3.2 -2.5,-2.8 -0.7,-3.1 3,-1.8 1,-7.4 -1.3,-1.6 -3.5,-2.4 -6.3,-2.5 -1.4,0.4 -1.3,-0.7 -1.8,-4.2 -0.3,-5.1 -1.2,-3.8 -2.5,-1.8 -3.2,-0.9 -2.9,-1.5 -2.1,-3.8 -2.5,-3.2 -3.4,0.3 -2.9,3 -18.8,3.9 -8.4,-6.8 -4.7,-2.2 -9.5,-2 -8.8,-6 0.6,-2.6 0.4,-2.5 6.7,-11.1 -0.4,-2.7 -1.8,-1.9 0.4,-5.8 2.5,-4.9 6.1,-17.8 3.9,-1 -0.1,-5 -2.6,-6.3 -1.6,-2.8 -1,-3.2 0.8,-3 1.8,-2 0.5,-5.6 -1.4,-6.1 4.4,0.5 3.8,-3.2 1.7,-2.5 1.9,-1.9 1.8,0.8 1.7,1.2 1.7,0.2 0.8,-2.6 0.5,-2.9 0.3,-3 -0.7,-4.5 -0.1,-2.9 -0.6,-2.9 4.7,-2.2 4.3,-3.5 3.2,-0.8 2.6,-2.2 2.3,-4.6 3.6,-1.2 1.6,0.4 1.4,0.9 0.6,1.4 0.8,0.9 28.6,4.5 6.9,-1.3 2.7,-1.4 2.4,-2.7 1.5,-5.1 2.8,-2.2 3.5,0.3 3.3,-1 12.7,-7.3 3,-3.6 3.3,-2.7 6.5,0.1 5.8,-1.2 6.6,-3.8 h 8.7 l 8.1,-2.6 6.9,-8.2 8.1,0.7 4.1,-0.6 3.7,-2.6 2.6,-5.2 2.2,-1.2 z"
     id="PLMZ"
     name="Masovian"
     style="fill:#faedcd;fill-opacity:1;stroke:#000000" />
  <path
     d="m 556,649.3 -9.9,-5 -9.1,0.5 -3,-0.9 -8.5,-13.6 -5.5,-5 -6.1,-1.1 -3.1,2.7 h -7.2 l -5.9,-1.2 -11.9,-6.4 -2.8,-2.9 -3.2,-0.6 -2.8,2 -3,1.4 -12.8,0.4 -4.6,2.3 -6.8,-5.6 -2.1,-4.1 -2.4,-3 -1.1,0.7 -0.8,1.5 -1.2,1 -6.4,0.2 -20.3,-5.3 -2.7,-2.1 -2,-3.7 -0.6,-6.7 -0.9,-4 -5.2,-4.7 -1.7,-4 -0.3,-4.7 1.5,-3.2 6.6,-1.5 2.3,-3.6 1.5,-4.6 4.5,-1.3 5,2.4 4.3,-3.1 2.5,-6.9 -0.1,-7.8 -0.9,-8 0.4,-9.6 2.4,-9 4.2,-10.1 2.3,-3.2 5.2,-2.4 13.2,1.4 1,-1.1 4.4,-7.7 0.3,-4.7 -1.7,-4.7 -1,-5.2 0.6,-5 1.3,-4.5 2.9,-0.3 3.1,0.4 6.1,-1.4 4.6,-5.5 0.8,-9.2 0.9,-4.2 9.1,-3.8 5.6,-5.4 -0.2,-1.5 -1.4,-0.4 -1.7,-3.7 -0.2,-4.8 0.9,-1.1 0.7,-1.4 1.5,-0.9 11.2,-0.2 3.5,-1 0.8,-1.7 1.1,-1.7 1.8,-0.3 1.7,0.1 8.8,6 9.5,2 4.7,2.2 8.4,6.8 18.8,-3.9 2.9,-3 3.4,-0.3 2.5,3.2 2.1,3.8 2.9,1.5 3.2,0.9 2.5,1.8 1.2,3.8 0.3,5.1 1.8,4.2 1.3,0.7 1.4,-0.4 6.3,2.5 3.5,2.4 1.3,1.6 -1,7.4 -3,1.8 0.7,3.1 2.5,2.8 2.1,3.2 -0.2,2.8 0.8,2.4 3.3,1.1 9.6,-1.2 6,2.8 6.6,5.1 5.3,7.2 0.6,2.4 -0.8,1.7 -0.9,1.3 -0.5,1.9 0.9,4.2 4.8,5.1 1.4,3.7 -0.2,3.5 -1.2,2.4 -6.6,-0.9 -5.4,-3 h -7.1 l -2.3,8.3 2.7,6.4 0.9,4.5 0.3,4.7 0.7,2.3 3.3,1.7 1.2,1.3 v 4.7 l -1.5,4 -5.8,5.4 -1.2,4 0.3,4.2 -2.6,2 -3.3,8.2 -3,1.4 -3,0.5 -2.9,1.4 -6.3,6 -2.9,0.8 -10.1,-1.4 -2.8,1.1 -2.2,2.9 -2.3,8.7 4.2,6.3 2.8,2.3 0.8,4.8 -0.7,4.7 -2,2.4 -12,-8.8 -3.2,0.6 -1.2,4.7 -0.1,4.6 0.4,4.5 -1.5,4.3 -3.2,2.1 -2.6,2.5 z"
     id="PLLD"
     name="Łódź"
     style="fill:#faedcd;fill-opacity:1;stroke:#000000" />
  <path
     d="m 499.5,242 7.9,15.3 2.2,6.6 2.8,5.2 1.4,2.1 2.1,0.9 h 1.7 l 7,2.3 9.7,5.9 10.3,2.7 5.1,3.6 4.7,11.9 1.3,13.8 -4.3,3.5 -4.7,2.2 0.6,2.9 0.1,2.9 0.7,4.5 -0.3,3 -0.5,2.9 -0.8,2.6 -1.7,-0.2 -1.7,-1.2 -1.8,-0.8 -1.9,1.9 -1.7,2.5 -3.8,3.2 -4.4,-0.5 1.4,6.1 -0.5,5.6 -1.8,2 -0.8,3 1,3.2 1.6,2.8 2.6,6.3 0.1,5 -3.9,1 -6.1,17.8 -2.5,4.9 -0.4,5.8 1.8,1.9 0.4,2.7 -6.7,11.1 -0.4,2.5 -0.6,2.6 -1.7,-0.1 -1.8,0.3 -1.1,1.7 -0.8,1.7 -3.5,1 -11.2,0.2 -1.5,0.9 -0.7,1.4 -0.9,1.1 -8.6,-6.6 -3.2,0.5 -9.5,4 -3.3,0.3 -2.5,-5.7 -15,-12.3 -2.7,-3.2 -3.2,-1.5 -1.7,0.2 -1.7,0.7 -0.8,1.7 -1.4,0.8 -2.2,-0.7 -1.7,-2.6 -1.1,-2.4 -0.7,-2.7 -1.3,-0.9 -1.8,-0.5 -5.3,6.2 -3.1,1.4 -9.2,-2.4 -2.9,-2.8 -2.6,-3.3 -3.1,-1.2 -3.3,-0.3 -3.3,-1.6 -9.3,-8.6 -6.8,-3.7 -6.3,-0.3 -5.8,-2 -1,-0.6 -0.7,-0.9 -0.4,-2.5 -0.8,-2 -2.8,-2.4 -1.6,1.5 -3.7,1.2 -3.7,-0.7 -1.8,-2.9 -1.4,-3.5 -3.3,-3.2 0.6,-3.8 1.6,-1.2 1.6,0.1 1.5,-0.5 1,-2.1 2,-10.6 -4.5,-9.8 -6.8,-5.2 -7.4,-2.7 4.1,-9.4 1.2,-9.4 -2.8,-5.4 -0.8,-6.4 8.3,-7 -4.3,-9.9 -7.8,-6 -1,-4.6 6.5,-8.6 2.6,-5.6 2.5,-1.5 2.7,-9.6 2.2,-4.9 2.6,-3.5 3.3,-0.3 12.6,3.3 5.7,-2.3 v -3.3 l 0.4,-2.1 0.5,-2 2.9,-2.8 6.2,-2.3 3.7,-6.8 2.5,-1.9 11.5,2.3 15.4,-2.3 3.1,0.2 2.7,3.5 3,2.8 16.3,2.7 7.7,4.6 3.4,-2.2 5.3,-1.9 7.4,1.1 1.7,1 1.3,1.5 1.4,0.9 6,6.2 2.8,1.8 5,2 10.3,-0.6 z"
     id="PLKP"
     name="Kuyavian-Pomeranian"
     style="fill:#faedcd;fill-opacity:1;stroke:#000000" />
  <path
     d="m 371.3,599.5 -1.2,-7.2 -1.1,-14.9 2.6,-6.1 -3.3,-2.6 -3.4,-1 -5.6,1.1 -5.3,-1.2 -2.2,-5.4 -0.5,-6.3 1.3,-3.1 2.2,-1.4 1.2,-3.6 0.9,-4.2 -9,-5.9 -10,-2.7 -10.7,-0.1 -3.8,0.8 -3.4,7.8 -18.8,3.3 -10.4,-3.7 -5,-5.5 -8.8,-4.9 -3.9,-7 -0.3,-4.7 -1.6,-3.7 -10.2,-5.6 -3.7,-1 -7.9,1.6 -2.9,-11 -5.9,-6.5 -6.6,4.5 -4.2,-1.3 -3.9,-2.7 -1.3,-3.9 0.4,-5.1 0.8,-2.8 -0.1,-3 -1.5,-0.9 -1.6,0.6 h -3.3 l -3.3,-3.3 -2.1,-3.8 -1.6,-4.6 -5,-2.7 -2.5,-2.5 -2.1,-3.2 -0.7,-4.7 0.1,-4.9 1,-4.4 0.2,-2.3 0.5,-2.1 2.9,-8.7 -0.2,-9.2 -1.8,-4.4 -3.8,-6.8 1.9,-1.4 h 2.4 v -4.4 l -0.7,-5.5 -1.1,-5.2 -3.2,-8.8 -0.3,-8.3 0.4,-3.2 0.1,-3.4 0.6,-1.4 1.4,0.2 8.6,-2.7 1.7,-1.2 0.9,-2.3 -2,-7.4 -2.8,-2.6 8.9,-11.4 -0.3,-9.6 1.8,-8.7 5,1.7 5.5,3.3 5.7,-0.7 5.6,-2.2 8.7,-8.3 7.4,-11.6 13.1,-7.7 6.7,-2.1 2.6,-2.5 2.2,-3.8 2.7,-3.4 -0.5,-4.4 -2.9,-3.6 -3.3,-1.8 -6.9,-1.7 -5.7,-5.6 -1.4,-5.4 -0.1,-6.1 2.1,-2.9 16.7,0.5 2.7,-0.6 2.3,-9.7 1.8,-5 2.4,-4.2 3.2,-1.4 3.5,-0.1 3.4,1.1 4.3,5.4 3.8,6.6 5.3,3.2 18.5,0.8 4.8,2.7 4.1,4.8 -2.6,5.6 -6.5,8.6 1,4.6 7.8,6 4.3,9.9 -8.3,7 0.8,6.4 2.8,5.4 -1.2,9.4 -4.1,9.4 7.4,2.7 6.8,5.2 4.5,9.8 -2,10.6 -1,2.1 -1.5,0.5 -1.6,-0.1 -1.6,1.2 -0.6,3.8 3.3,3.2 1.4,3.5 1.8,2.9 3.7,0.7 3.7,-1.2 1.6,-1.5 2.8,2.4 0.8,2 0.4,2.5 0.7,0.9 1,0.6 5.8,2 6.3,0.3 6.8,3.7 9.3,8.6 3.3,1.6 3.3,0.3 3.1,1.2 2.6,3.3 2.9,2.8 9.2,2.4 3.1,-1.4 5.3,-6.2 1.8,0.5 1.3,0.9 0.7,2.7 1.1,2.4 1.7,2.6 2.2,0.7 1.4,-0.8 0.8,-1.7 1.7,-0.7 1.7,-0.2 3.2,1.5 2.7,3.2 15,12.3 2.5,5.7 3.3,-0.3 9.5,-4 3.2,-0.5 8.6,6.6 0.2,4.8 1.7,3.7 1.4,0.4 0.2,1.5 -5.6,5.4 -9.1,3.8 -0.9,4.2 -0.8,9.2 -4.6,5.5 -6.1,1.4 -3.1,-0.4 -2.9,0.3 -1.3,4.5 -0.6,5 1,5.2 1.7,4.7 -0.3,4.7 -4.4,7.7 -1,1.1 -13.2,-1.4 -5.2,2.4 -2.3,3.2 -4.2,10.1 -2.4,9 -0.4,9.6 0.9,8 0.1,7.8 -2.5,6.9 -4.3,3.1 -5,-2.4 -4.5,1.3 -1.5,4.6 -2.3,3.6 -6.6,1.5 -1.5,3.2 0.3,4.7 1.7,4 5.2,4.7 0.9,4 0.6,6.7 -10.4,6.2 -10.7,4 -5.8,-0.3 -4.8,-3.9 -0.5,-3.5 -1.2,-3.1 -3,-1.6 z"
     id="PLWP"
     name="Greater Poland"
     style="fill:#faedcd;fill-opacity:1;stroke:#000000" />
  <path
     d="m 574.7,695.1 -2.6,-1 -6.2,-0.9 -3.1,-1.7 1.8,-4 6.2,-5.2 3.7,-0.6 -4.3,-5.3 -2.6,-5.6 -3.1,-2.4 -6.8,-2 -2.5,-2.9 3.4,-6.5 6.2,-1 0.4,-1.2 v -1.7 l -0.3,-1.6 -1.2,-0.7 -7.7,-1.5 2.1,-3.5 2.6,-2.5 3.2,-2.1 1.5,-4.3 -0.4,-4.5 0.1,-4.6 1.2,-4.7 3.2,-0.6 12,8.8 2,-2.4 0.7,-4.7 -0.8,-4.8 -2.8,-2.3 -4.2,-6.3 2.3,-8.7 2.2,-2.9 2.8,-1.1 10.1,1.4 2.9,-0.8 6.3,-6 2.9,-1.4 3,-0.5 3,-1.4 3.3,-8.2 2.6,-2 5,1.8 2.7,6.9 15,9.2 2.1,2.4 1.9,3 2.3,1.8 11,2.3 12.6,-2 3,-1.7 2.7,-3.8 2.8,-2.7 2.8,1 0.7,4.8 2.7,3.1 0.4,2.4 0.6,2.2 6.2,4.1 7,0.6 15,4.7 29,-6.1 0.4,2 -0.4,0.8 -0.7,0.6 -0.8,0.4 -0.6,0.1 v 1 l 1.6,1.3 0.3,2.8 -0.6,6.2 -0.1,0.5 -0.3,0.2 -0.2,0.5 -0.1,0.9 0.2,0.8 0.4,0.4 0.4,0.2 0.2,0.5 0.2,1.4 2.3,8.8 0.5,3.1 0.2,1.9 0.2,5.3 -0.8,5.7 -0.6,2.2 -1.1,2.6 -1.4,2.1 -1.6,0.9 -2.4,0.4 -1.6,1.1 -2.6,4.4 -4.3,5.1 -0.6,2.2 -0.5,2.8 -1.1,2.2 -2.8,3.4 -1.7,1.4 -5.8,1.5 -8.7,3.9 0.4,0.6 0.9,2.3 -1.7,1.8 -2.4,1.4 -2.3,0.5 -1.7,-0.8 -5.5,4.9 -0.4,0.1 -1.3,-0.1 -0.3,0.3 v 0.6 l 0.1,0.7 -0.1,0.4 -1,0.8 -0.6,-0.1 -0.8,-0.7 -0.5,2 -1.1,1 -1.1,0.5 -0.4,0.8 -0.2,1.2 -0.3,0.3 H 688 l -0.6,0.5 -1.6,2.2 v 0.2 l -1.6,0.4 -0.9,-0.8 -0.8,-1 -1.3,-0.6 -0.9,0.2 -3.8,1.8 -0.8,0.8 -0.9,0.9 -1,0.9 -1.4,0.4 -6.7,0.2 -0.9,0.3 -0.8,0.7 -0.9,1.2 -0.8,0.5 -2.5,0.2 -1.3,0.8 -1.4,-0.9 -1.2,0.8 -1.2,1.3 -1.5,0.7 -3.5,-3.3 -0.5,0.8 -0.6,2.5 -1.9,1.9 -0.3,0.2 h -0.8 l -0.4,0.3 -0.3,0.7 -0.1,1.5 -0.3,0.7 -1.3,1.3 -2.9,1.4 -1.1,1.8 -0.4,1.5 -2.7,2.9 -11.9,-0.4 -6.7,-4 -1.7,-3.6 -4.1,-5.8 -1.6,-3.3 -1.5,-6.6 -4.2,-8.2 -6.9,-4.7 -7.7,-2.4 -3,-3.2 -3.6,-1.9 z"
     id="PLSK"
     name="Świętokrzyskie"
     style="fill:#faedcd;fill-opacity:1;stroke:#000000" />
</svg>
